<svg xmlns="http://www.w3.org/2000/svg" xmlns:xlink="http://www.w3.org/1999/xlink" viewBox="0 0 117.0482 114.906" width="117.0482" height="114.906">
<g transform="matrix(1 0 0 1 58.5241 57.453)">
<g style="">
		<g transform="matrix(0.8622 0 0 0.8622 0 0)">
<g style="">
		<g transform="matrix(1 0 0 1 1.382 63.9936)">
<path style="stroke: none; stroke-width: 1; stroke-dasharray: none; stroke-linecap: butt; stroke-dashoffset: 0; stroke-linejoin: miter; stroke-miterlimit: 4; fill: rgb(76,82,77); fill-rule: nonzero; opacity: 1;" transform=" translate(-68.76, -130.1283)" d="M 62.51 132.22 C 61.98 130.7 60.51 131.59 59.57 131.06 C 59.57 129.53 60.73 129.37 61.78 129.06 C 65.27 128.54 68.87 129.4 72.33 128.3 C 73.1529 128.0875 74.0001 127.9833 74.85 127.99 C 76.0209 127.9419 77.1541 128.4098 77.95 129.27 L 76.5 132.27 Z" stroke-linecap="round"/>
</g>
		<g transform="matrix(1 0 0 1 -29.7971 12.8114)">
<path style="stroke: none; stroke-width: 1; stroke-dasharray: none; stroke-linecap: butt; stroke-dashoffset: 0; stroke-linejoin: miter; stroke-miterlimit: 4; fill: rgb(228,244,250); fill-rule: nonzero; opacity: 1;" transform=" translate(-37.581, -78.9461)" d="M 74.46 129.1 L 72.66 129.29 C 69.22 130.2 65.72 129.48 62.26 129.71 C 54.65 130.71 48.02 127.38 41.16 125.04 C 37.16 123.27 33.32 121.27 29.52 119.14 C 25.15 117.22 22.08 113.3 17.68 111.43 L 16.61 109.57 C 14.71 106.85 12.45 104.41 10.8 101.57 C 8.9 98.36 6.8 95.25 5.74 91.64 C 1.3 81.71 -0.52 71.43 1.56 60.64 C 2.63 49.12 7.08 38.84 13.24 29.2 C 13.6596 28.4476 14.4586 27.9866 15.32 28 C 17.17 29.49 16.68 31.28 15.66 32.84 C 13.16 36.68 12.66 41.14 11.47 45.39 C 10.76 47.95 10.07 50.77 14.47 50.45 C 15 50.45 15.12 51.45 15.16 52.16 C 12.6816 58.5804 12.449 65.6506 14.5 72.22 C 15 76 18.08 79 17.11 83.05 C 16.2297 84.2448 15.9256 85.7689 16.28 87.21 C 19.19 102.68 28.06 112.68 43.21 117.05 C 43.53 117.15 43.83 117.29 44.14 117.41 C 52.32 122.48 61.91 123.41 70.75 126.56 C 72.17 127.06 74.26 126.76 74.46 129.1 Z" stroke-linecap="round"/>
</g>
		<g transform="matrix(1 0 0 1 3.6283 56.5866)">
<path style="stroke: none; stroke-width: 1; stroke-dasharray: none; stroke-linecap: butt; stroke-dashoffset: 0; stroke-linejoin: miter; stroke-miterlimit: 4; fill: rgb(216,238,244); fill-rule: nonzero; opacity: 1;" transform=" translate(-71.0063, -122.7213)" d="M 74.46 129.1 C 69.4 127.83 64.71 125.38 59.34 124.92 C 53.46 124.42 48.68 120.76 43.53 118.23 C 44.85 115.66 47.05 115.82 49.02 116.93 C 56.75 121.28 65.25 120.52 73.59 121.09 C 81.03 121.59 88.39 121.94 95.59 119.64 C 96.557 119.3233 97.6194 119.5441 98.38 120.22 C 99.02 122.92 96.51 122.89 95.18 123.78 C 93.12 125.15 90.63 125.78 88.57 127.17 L 85.28 128.24 C 82.76 128.1 80.44 129.52 77.9 129.24 L 77.9 129.24 Z" stroke-linecap="round"/>
</g>
		<g transform="matrix(1 0 0 1 -50.6055 -32.0187)">
<path style="stroke: none; stroke-width: 1; stroke-dasharray: none; stroke-linecap: butt; stroke-dashoffset: 0; stroke-linejoin: miter; stroke-miterlimit: 4; fill: rgb(103,106,102); fill-rule: nonzero; opacity: 1;" transform=" translate(-16.7725, -34.1159)" d="M 15.54 28.27 C 12.69 29.33 12.18 32.21 10.92 34.42 C 6.3146 42.3325 3.3999 51.114 2.36 60.21 C 0.11 60.21 1.64 58.1 0.77 57.32 C 5.12 38.27 14.12 22 29.39 9.48 C 30.064 9.0307 30.7769 8.6425 31.52 8.32 C 31.6652 8.1441 31.877 8.0366 32.1047 8.0233 C 32.3324 8.01 32.5554 8.0921 32.72 8.25 C 33.08 10.25 31.6 11.17 30.34 12.18 C 24.9915 16.5034 20.3696 21.6553 16.65 27.44 C 16.3442 27.7935 15.9655 28.0766 15.54 28.27 Z" stroke-linecap="round"/>
</g>
		<g transform="matrix(1 0 0 1 4.2058 -61.24)">
<path style="stroke: none; stroke-width: 1; stroke-dasharray: none; stroke-linecap: butt; stroke-dashoffset: 0; stroke-linejoin: miter; stroke-miterlimit: 4; fill: rgb(95,100,95); fill-rule: nonzero; opacity: 1;" transform=" translate(-71.5839, -4.8947)" d="M 48.6 1.57 C 55.21 -1.19 62 0.33 68.57 1.3 C 77.47 2.61 86.77 2.83 94.57 8.3 C 94.368 9.0938 93.7023 9.6842 92.89 9.79 C 86.6896 7.7663 80.3355 6.248 73.89 5.25 C 66 3.7 58.07 4.18 50.18 3.4 C 49.35 3.05 48.55 2.68 48.6 1.57 Z" stroke-linecap="round"/>
</g>
		<g transform="matrix(1 0 0 1 53.0843 28.4753)">
<path style="stroke: none; stroke-width: 1; stroke-dasharray: none; stroke-linecap: butt; stroke-dashoffset: 0; stroke-linejoin: miter; stroke-miterlimit: 4; fill: rgb(91,95,91); fill-rule: nonzero; opacity: 1;" transform=" translate(-120.4623, -94.61)" d="M 132.66 75.68 C 128.88 91.18 121.59 104.62 109.47 115.22 C 108.7442 115.097 108.1909 114.5027 108.12 113.77 C 108.72 110.94 111.12 109.45 112.94 107.6 C 116.1121 104.6502 118.6946 101.1243 120.55 97.21 C 122.98 89.9 128.55 83.97 129.85 76.15 C 130.0322 75.1381 130.7598 74.3104 131.74 74 C 132.62 74.26 133.05 74.75 132.66 75.68 Z" stroke-linecap="round"/>
</g>
		<g transform="matrix(1 0 0 1 44.517 -39.2578)">
<path style="stroke: none; stroke-width: 1; stroke-dasharray: none; stroke-linecap: butt; stroke-dashoffset: 0; stroke-linejoin: miter; stroke-miterlimit: 4; fill: rgb(87,90,85); fill-rule: nonzero; opacity: 1;" transform=" translate(-111.895, -26.8769)" d="M 93.51 9.07 L 94.6 8.27 C 110.52 15.58 123.94 25.44 129.87 42.91 C 130.0729 43.6939 130.21 44.4933 130.28 45.3 C 129.8598 45.545 129.3402 45.545 128.92 45.3 C 128.3646 44.9358 127.9269 44.4182 127.66 43.81 C 122.07 28.99 110.66 19.81 97.3 12.58 C 95.77 11.76 93.81 11.27 93.51 9.07 Z" stroke-linecap="round"/>
</g>
		<g transform="matrix(1 0 0 1 -64.1229 8.9654)">
<path style="stroke: none; stroke-width: 1; stroke-dasharray: none; stroke-linecap: butt; stroke-dashoffset: 0; stroke-linejoin: miter; stroke-miterlimit: 4; fill: rgb(112,114,110); fill-rule: nonzero; opacity: 1;" transform=" translate(-3.2552, -75.1001)" d="M 0.77 57.32 L 2.36 60.22 C 0.19 71.36 2.46 81.92 6.51 92.22 Q 5.99 93.09 5.37 92.28 C -0.78 81.26 -0.57 69.36 0.77 57.32 Z" stroke-linecap="round"/>
</g>
		<g transform="matrix(1 0 0 1 31.612 54.5753)">
<path style="stroke: none; stroke-width: 1; stroke-dasharray: none; stroke-linecap: butt; stroke-dashoffset: 0; stroke-linejoin: miter; stroke-miterlimit: 4; fill: rgb(91,94,90); fill-rule: nonzero; opacity: 1;" transform=" translate(-98.99, -120.71)" d="M 108.42 114.21 L 109.42 115.21 C 103.6128 120.9354 96.4287 125.0682 88.56 127.21 C 90.78 123.47 95.56 123.89 98.4 121.1 C 101.29 118.09 104.15 115.13 108.42 114.21 Z" stroke-linecap="round"/>
</g>
		<g transform="matrix(1 0 0 1 -16.7122 61.368)">
<path style="stroke: none; stroke-width: 1; stroke-dasharray: none; stroke-linecap: butt; stroke-dashoffset: 0; stroke-linejoin: miter; stroke-miterlimit: 4; fill: rgb(96,100,96); fill-rule: nonzero; opacity: 1;" transform=" translate(-50.6658, -127.5027)" d="M 40.8 124.09 C 47.49 126.34 53.93 129.53 61.24 129.33 C 61.4234 129.3329 61.5927 129.4287 61.6897 129.5843 C 61.7867 129.7399 61.7981 129.9341 61.72 130.1 L 59.57 131.1 C 52.57 130.05 45.84 128.41 39.57 125.1 C 39.5 124.08 39.79 123.62 40.8 124.09 Z" stroke-linecap="round"/>
</g>
		<g transform="matrix(1 0 0 1 65.4657 -0.7597)">
<path style="stroke: none; stroke-width: 1; stroke-dasharray: none; stroke-linecap: butt; stroke-dashoffset: 0; stroke-linejoin: miter; stroke-miterlimit: 4; fill: rgb(104,110,105); fill-rule: nonzero; opacity: 1;" transform=" translate(-132.8437, -65.375)" d="M 132.66 75.68 L 131.66 74.3 C 130.16 68.4 131.4 62.5 131.66 56.6 C 131.9941 55.8138 132.6932 55.2418 133.53 55.07 C 135.4219 61.8597 135.1174 69.0739 132.66 75.68 Z" stroke-linecap="round"/>
</g>
		<g transform="matrix(1 0 0 1 -26.838 -60.9568)">
<path style="stroke: none; stroke-width: 1; stroke-dasharray: none; stroke-linecap: butt; stroke-dashoffset: 0; stroke-linejoin: miter; stroke-miterlimit: 4; fill: rgb(114,121,118); fill-rule: nonzero; opacity: 1;" transform=" translate(-40.54, -5.1779)" d="M 48.6 1.57 L 49.6 2.4 C 49.6 4.16 48.16 4.22 46.97 4.55 C 44.06 4.67 41.57 6.18 38.91 7.13 C 36.91 7.66 35.25 9.52 32.91 8.47 L 31.48 8.32 C 36.237 4.1622 42.2855 1.7774 48.6 1.57 Z" stroke-linecap="round"/>
</g>
		<g transform="matrix(1 0 0 1 -43.7863 49.0507)">
<path style="stroke: none; stroke-width: 1; stroke-dasharray: none; stroke-linecap: butt; stroke-dashoffset: 0; stroke-linejoin: miter; stroke-miterlimit: 4; fill: rgb(93,93,90); fill-rule: nonzero; opacity: 1;" transform=" translate(-23.5917, -115.1854)" d="M 17.68 111.43 C 20 109.75 20.68 112.35 22 113.16 C 24.58 114.78 27 116.67 29.47 118.46 C 29.56 119.23 29.54 119.86 28.47 119.25 C 24.4614 117.265 20.8141 114.6216 17.68 111.43 Z" stroke-linecap="round"/>
</g>
		<g transform="matrix(1 0 0 1 -32.713 55.6103)">
<path style="stroke: none; stroke-width: 1; stroke-dasharray: none; stroke-linecap: butt; stroke-dashoffset: 0; stroke-linejoin: miter; stroke-miterlimit: 4; fill: rgb(106,107,103); fill-rule: nonzero; opacity: 1;" transform=" translate(-34.665, -121.745)" d="M 28.5 119.25 L 29.5 118.46 L 40.83 124.09 L 39.61 125.03 C 35.667 123.604 31.931 121.6603 28.5 119.25 Z" stroke-linecap="round"/>
</g>
		<g transform="matrix(1 0 0 1 63.8759 -15.3647)">
<path style="stroke: none; stroke-width: 1; stroke-dasharray: none; stroke-linecap: butt; stroke-dashoffset: 0; stroke-linejoin: miter; stroke-miterlimit: 4; fill: rgb(92,93,87); fill-rule: nonzero; opacity: 1;" transform=" translate(-131.2539, -50.77)" d="M 133.58 55.07 L 132.58 56.27 C 129.83 53.09 127.89 49.69 129.53 45.27 L 130.28 45.27 C 132.143 48.2281 133.2742 51.5875 133.58 55.07 Z" stroke-linecap="round"/>
</g>
		<g transform="matrix(1 0 0 1 -59.008 31.1253)">
<path style="stroke: none; stroke-width: 1; stroke-dasharray: none; stroke-linecap: butt; stroke-dashoffset: 0; stroke-linejoin: miter; stroke-miterlimit: 4; fill: rgb(101,104,100); fill-rule: nonzero; opacity: 1;" transform=" translate(-8.37, -97.26)" d="M 5.37 92.32 L 6.51 92.26 L 11.37 101.26 C 11.2548 101.7028 10.9462 102.0701 10.53 102.26 C 8.46 99.16 6.12 96.15 5.37 92.32 Z" stroke-linecap="round"/>
</g>
		<g transform="matrix(1 0 0 1 -53.808 39.3303)">
<path style="stroke: none; stroke-width: 1; stroke-dasharray: none; stroke-linecap: butt; stroke-dashoffset: 0; stroke-linejoin: miter; stroke-miterlimit: 4; fill: rgb(97,100,95); fill-rule: nonzero; opacity: 1;" transform=" translate(-13.57, -105.465)" d="M 10.53 102.32 L 11.37 101.32 C 13.09 104.1 15.68 106.32 16.61 109.61 C 13.64 107.94 11.86 105.31 10.53 102.32 Z" stroke-linecap="round"/>
</g>
		<g transform="matrix(1 0 0 1 14.252 62.6532)">
<path style="stroke: none; stroke-width: 1; stroke-dasharray: none; stroke-linecap: butt; stroke-dashoffset: 0; stroke-linejoin: miter; stroke-miterlimit: 4; fill: rgb(96,97,92); fill-rule: nonzero; opacity: 1;" transform=" translate(-81.63, -128.7879)" d="M 77.94 129.23 C 80.32 128.28 82.62 126.74 85.32 128.23 C 83 129.63 80.65 130.77 77.94 129.23 Z" stroke-linecap="round"/>
</g>
		<g transform="matrix(1 0 0 1 -0.423 63.6004)">
<path style="stroke: none; stroke-width: 1; stroke-dasharray: none; stroke-linecap: butt; stroke-dashoffset: 0; stroke-linejoin: miter; stroke-miterlimit: 4; fill: rgb(216,238,244); fill-rule: nonzero; opacity: 1;" transform=" translate(-66.955, -129.7351)" d="M 61.72 130.1 C 61.5788 129.8342 61.4219 129.5771 61.25 129.33 L 72.66 129.33 C 69.11 130.83 65.36 129.71 61.72 130.1 Z" stroke-linecap="round"/>
</g>
		<g transform="matrix(1 0 0 1 1.9561 36.7024)">
<path style="stroke: none; stroke-width: 1; stroke-dasharray: none; stroke-linecap: butt; stroke-dashoffset: 0; stroke-linejoin: miter; stroke-miterlimit: 4; fill: rgb(205,236,245); fill-rule: nonzero; opacity: 1;" transform=" translate(-69.3342, -102.8372)" d="M 108.42 114.21 C 105.27 116.76 102.3 119.56 98.42 121.06 C 96.77 119.63 95.15 121.06 93.77 121.43 C 88.1 123 82.58 122.94 76.68 122.61 C 69.83 122.22 62.98 121.84 56.12 121.29 C 53.69 121.1 51.47 120.7 49.78 118.94 C 47.78 116.94 45.78 116.94 43.5 118.23 C 35.02 116.75 28.88 111.07 22.2 106.36 C 20.71 105.3 20.49 103.59 19.95 102.06 C 18.1 96.77 16.47 91.39 14.42 86.18 C 13.19 83.06 15.09 83.3 16.96 83.18 C 18.83 83.06 19.66 84.56 20.11 85.92 C 22.05 91.84 26.44 95.86 30.71 99.99 C 32.6003 102.0325 34.7762 103.7907 37.17 105.21 C 34.5727 103.5996 32.216 101.6301 30.17 99.36 C 28.0994 97.465 26.13 95.4622 24.27 93.36 C 23.13 91.93 21.27 90.51 22.46 88.17 C 27.28 89.04 30.58 92.53 33.87 95.56 C 40 101.19 47.14 104.73 55 107.25 C 60.16 108.82 64.89 111.81 70.48 112.01 C 76.2219 114.7501 82.8142 115.1095 88.82 113.01 C 97.93 110.01 105.19 104.38 111.12 96.95 C 113.7807 93.5515 116.2479 90.0059 118.51 86.33 C 119.51 84.68 120.38 82.68 122.91 82.89 C 125.77 85.04 124.47 87.66 123.35 89.89 C 122.0725 92.5084 121.3896 95.3768 121.35 98.29 C 118.53 104.77 113 109.1 108.42 114.21 Z" stroke-linecap="round"/>
</g>
		<g transform="matrix(1 0 0 1 -35.3986 1.7203)">
<path style="stroke: none; stroke-width: 1; stroke-dasharray: none; stroke-linecap: butt; stroke-dashoffset: 0; stroke-linejoin: miter; stroke-miterlimit: 4; fill: rgb(218,241,248); fill-rule: nonzero; opacity: 1;" transform=" translate(-31.9794, -67.855)" d="M 54.52 108.24 C 47.34 106.24 40.58 103.39 35.12 98.24 C 31.12 94.5 26.55 91.68 22.32 88.34 C 18.1 85.52 17.19 80.75 15.32 76.54 C 14.626 74.7339 14.0547 72.883 13.61 71 C 11.99 64.56 12.7 58.24 14.53 52 C 14.5026 51.8446 14.4659 51.691 14.42 51.54 C 9.57 52.54 8.35 51.23 10.04 45.7 C 11.48 40.97 11.33 35.63 15.14 31.7 C 15.76 31.06 15.43 29.5 15.54 28.36 C 15.6 28.06 15.67 27.76 15.75 27.47 C 19.06 29.24 20.26 31.87 17.94 35.02 C 15.26 38.67 15.69 42.35 16.67 46.53 C 18.26 45 18.21 42.97 19.35 41.59 C 20.22 40.59 21.08 39.27 22.35 41.21 C 22.7807 50.7206 24.2767 60.1529 26.81 69.33 C 26.79 80 32.29 88.1 40 94.87 C 43.8205 98.3311 47.9063 101.4874 52.22 104.31 C 53.54 105.17 55.08 106.14 54.52 108.24 Z" stroke-linecap="round"/>
</g>
		<g transform="matrix(1 0 0 1 -45.2955 19.8713)">
<path style="stroke: none; stroke-width: 1; stroke-dasharray: none; stroke-linecap: butt; stroke-dashoffset: 0; stroke-linejoin: miter; stroke-miterlimit: 4; fill: rgb(123,138,139); fill-rule: nonzero; opacity: 1;" transform=" translate(-22.0825, -86.006)" d="M 14.41 71.35 C 15.9681 77.4587 18.6505 83.2237 22.32 88.35 C 23.68 93.02 27.83 95.59 30.55 99.23 C 30.7619 99.4197 30.8829 99.6906 30.8829 99.975 C 30.8829 100.2594 30.7619 100.5303 30.55 100.72 C 24.36 96.13 20.93 89.46 17 83.18 C 16.23 79.46 13.63 76.34 13.45 72.42 C 13 71.34 13.5 71.18 14.41 71.35 Z" stroke-linecap="round"/>
</g>
		<g transform="matrix(1 0 0 1 -53.822 -3.9597)">
<path style="stroke: none; stroke-width: 1; stroke-dasharray: none; stroke-linecap: butt; stroke-dashoffset: 0; stroke-linejoin: miter; stroke-miterlimit: 4; fill: rgb(149,156,155); fill-rule: nonzero; opacity: 1;" transform=" translate(-13.556, -62.175)" d="M 14.41 71.35 L 13.41 72.42 C 11.48 65.42 10.41 58.57 14.5 51.93 C 15.2802 52.2926 15.6269 53.2127 15.28 54 C 12.54 59.68 13.48 65.51 14.41 71.35 Z" stroke-linecap="round"/>
</g>
		<g transform="matrix(1 0 0 1 -22.7738 -40.7912)">
<path style="stroke: none; stroke-width: 1; stroke-dasharray: none; stroke-linecap: butt; stroke-dashoffset: 0; stroke-linejoin: miter; stroke-miterlimit: 4; fill: rgb(208,236,245); fill-rule: nonzero; opacity: 1;" transform=" translate(-44.6042, -25.3434)" d="M 21.53 40.3 C 19.44 41.97 19.68 44.8 18.29 46.81 C 17.85 47.44 17.29 48.45 16.8 48.47 C 15.7612 48.4186 14.9351 47.5795 14.9 46.54 C 15.24 42.36 12.79 37.79 17.09 34.13 C 20.18 31.51 15.93 29.71 15.75 27.38 C 19.49 19.27 26.57 14.19 33 8.47 L 38.51 6.28 C 41.5145 6.8222 44.5865 5.7793 46.64 3.52 L 49.64 2.4 C 58.06 2 66.45 2.11 74.7 4.23 C 72.24 6.23 69.11 7.14 66.57 9.02 C 60.8332 9.9224 55.2061 11.4205 49.78 13.49 C 38.62 18.12 30.1 26.19 24 36.68 C 23.25 38 23 39.53 21.53 40.3 Z" stroke-linecap="round"/>
</g>
		<g transform="matrix(1 0 0 1 32.2963 -14.9088)">
<path style="stroke: none; stroke-width: 1; stroke-dasharray: none; stroke-linecap: butt; stroke-dashoffset: 0; stroke-linejoin: miter; stroke-miterlimit: 4; fill: rgb(226,241,246); fill-rule: nonzero; opacity: 1;" transform=" translate(-99.6743, -51.2258)" d="M 66.49 8.31 C 68.3472 5.6336 71.4452 4.0941 74.7 4.23 C 81.1996 4.7618 87.5609 6.3986 93.51 9.07 C 99.73 12.8 106.2 16.12 112 20.6 C 120.38 27.08 125.82 35.55 129.54 45.29 Q 131.05 50.78 132.59 56.29 C 133.1402 62.3016 132.844 68.3607 131.71 74.29 C 129.71 82.91 125.21 90.42 121.35 98.23 C 119.84 95.56 120.35 93.1 121.62 90.4 C 122.62 88.24 124.75 85.9 122.45 83.24 C 120.76 81.12 122.17 79.12 122.69 77.1 C 124.69 69.49 125.11 62 121.05 54.84 C 120.14 53.02 120.05 50.98 119.53 49.05 C 119.01 43.85 114.94 41.05 111.79 37.64 C 109.97 36.56 109.41 34.46 108 33.04 C 107.5564 32.5368 107.1456 32.0057 106.77 31.45 C 105.5776 29.5845 104.1227 27.9005 102.45 26.45 C 102.12 26.16 101.81 25.85 101.51 25.53 C 99.89 23.83 98.33 22 96 21.19 C 94.8034 20.5468 93.6801 19.7756 92.65 18.89 C 91.07 17.29 88.65 17.81 86.91 16.57 C 82.7807 13.1279 77.6957 11.0339 72.34 10.57 C 70.2 10.43 68 10.23 66.49 8.31 Z" stroke-linecap="round"/>
</g>
		<g transform="matrix(1 0 0 1 -24.853 -60.5877)">
<path style="stroke: none; stroke-width: 1; stroke-dasharray: none; stroke-linecap: butt; stroke-dashoffset: 0; stroke-linejoin: miter; stroke-miterlimit: 4; fill: rgb(189,221,229); fill-rule: nonzero; opacity: 1;" transform=" translate(-42.525, -5.5471)" d="M 46.59 3.52 C 45.1 7.66 41.9 8.74 38.46 6.28 C 41 4.92 43.53 3.38 46.59 3.52 Z" stroke-linecap="round"/>
</g>
		<g transform="matrix(1 0 0 1 6.1226 -4.0516)">
<path style="stroke: none; stroke-width: 1; stroke-dasharray: none; stroke-linecap: butt; stroke-dashoffset: 0; stroke-linejoin: miter; stroke-miterlimit: 4; fill: rgb(249,249,249); fill-rule: nonzero; opacity: 1;" transform=" translate(-73.5007, -62.0831)" d="M 121.47 54.28 C 125 56.65 124.97 60.49 125.47 64.09 C 126.35 70.76 124.25 76.98 122.47 83.25 C 119.13 87.94 115.88 92.71 112.47 97.32 C 106.8642 105.0281 99.044 110.8462 90.05 114 C 83.66 116.22 76.87 117 70.51 113.19 C 56.94 106.32 44.51 97.83 33.92 86.87 C 29.39 82.2 27.17 76.37 25.55 70.24 C 23.05 60.4 20.55 50.56 21.55 40.24 C 22.93 32.07 29.13 27.24 34.45 21.87 C 43.23 13 54.37 9.47 66.49 8.31 C 72.08 9.52 78.05 9.17 83.18 12.31 C 84.83 13.31 86.88 13.85 87.47 16.06 C 87.58 18.6 83.17 19.74 85.36 22.91 C 86.64 23.57 86.79 25.91 88.95 25.24 C 94.04 26.15 96.52 30.5 100.01 33.53 C 101.2844 34.8906 102.383 36.4058 103.28 38.04 C 103.667 38.7645 104.1012 39.4626 104.58 40.13 C 107.33 43.52 108.87 43.39 111.1 39.49 C 111.3993 38.7289 111.8328 38.0278 112.38 37.42 C 116.32 40.11 120.11 42.9 120.47 48.25 C 119.47 48.79 118.69 48.25 117.87 47.82 C 116.75 47.15 115.44 45.99 114.32 47.17 C 112.79 48.78 113.06 50.8 114.24 52.64 C 115.85 56.88 118.55 56.06 121.47 54.28 Z" stroke-linecap="round"/>
</g>
		<g transform="matrix(1 0 0 1 -19.348 25.612)">
<path style="stroke: none; stroke-width: 1; stroke-dasharray: none; stroke-linecap: butt; stroke-dashoffset: 0; stroke-linejoin: miter; stroke-miterlimit: 4; fill: rgb(228,244,250); fill-rule: nonzero; opacity: 1;" transform=" translate(-48.03, -91.7467)" d="M 25.55 70.27 C 32.23 87.8 46.71 97.6 61.74 106.89 C 64.81 108.79 68.13 110.36 70.51 113.22 C 64.63 113.34 59.73 110.22 54.51 108.22 C 49.66 104.3 44.76 100.44 39.96 96.45 C 31.75 89.63 25.74 81.54 25.55 70.27 Z" stroke-linecap="round"/>
</g>
		<g transform="matrix(1 0 0 1 -32.258 36.6703)">
<path style="stroke: none; stroke-width: 1; stroke-dasharray: none; stroke-linecap: butt; stroke-dashoffset: 0; stroke-linejoin: miter; stroke-miterlimit: 4; fill: rgb(145,168,168); fill-rule: nonzero; opacity: 1;" transform=" translate(-35.12, -102.805)" d="M 30.51 100.71 C 30.51 100.21 30.51 99.71 30.51 99.22 L 39.73 106.39 C 36.13 105.38 32.81 103.87 30.51 100.71 Z" stroke-linecap="round"/>
</g>
		<g transform="matrix(1 0 0 1 30.8882 -36.2311)">
<path style="stroke: none; stroke-width: 1; stroke-dasharray: none; stroke-linecap: butt; stroke-dashoffset: 0; stroke-linejoin: miter; stroke-miterlimit: 4; fill: rgb(246,246,247); fill-rule: nonzero; opacity: 1;" transform=" translate(-98.2662, -29.9037)" d="M 88.81 26.16 C 85.92 27.4 86.22 24.36 85.01 23.33 C 84.01 19.57 86.12 16.72 89.84 16.82 C 91.45 16.82 92.6 17.92 94 18.37 L 95.94 20.29 C 98.72 21.22 100.05 24.02 102.5 25.36 L 102.44 25.31 C 104.0752 27.5048 105.9427 29.5164 108.01 31.31 C 108.1194 31.4944 108.2618 31.6571 108.43 31.79 C 109.2244 33.5722 110.1123 35.3113 111.09 37 C 112.32 39.12 111.82 40.63 110.09 42.08 C 108.09 43.74 106.56 42.91 105.02 41.34 C 104.02 40.34 103.29 38.97 102.02 38.22 L 99.6 34.69 C 96.54 31.15 94.55 26.32 88.81 26.16 Z" stroke-linecap="round"/>
</g>
		<g transform="matrix(1 0 0 1 49.7269 -13.9823)">
<path style="stroke: none; stroke-width: 1; stroke-dasharray: none; stroke-linecap: butt; stroke-dashoffset: 0; stroke-linejoin: miter; stroke-miterlimit: 4; fill: rgb(246,246,246); fill-rule: nonzero; opacity: 1;" transform=" translate(-117.105, -52.1524)" d="M 118.46 47.29 L 120.46 48.29 C 121.61 50.15 121.46 52.22 121.46 54.29 C 117.35 59.52 116.69 59.43 113.46 53.24 C 112.947 52.403 112.6995 51.4304 112.75 50.45 C 112.75 46.11 114.3 45.27 118.46 47.29 Z" stroke-linecap="round"/>
</g>
		<g transform="matrix(1 0 0 1 39.9194 -28.2307)">
<path style="stroke: none; stroke-width: 1; stroke-dasharray: none; stroke-linecap: butt; stroke-dashoffset: 0; stroke-linejoin: miter; stroke-miterlimit: 4; fill: rgb(125,127,122); fill-rule: nonzero; opacity: 1;" transform=" translate(-107.2974, -37.904)" d="M 102 38.26 C 103.83 38.26 104.29 39.93 105.27 40.93 C 106.64 42.34 107.99 42.59 109.62 41.46 C 111.25 40.33 111.15 38.88 110.52 37.15 C 109.89 35.42 107.82 34.15 108.52 31.83 L 112.47 37.47 C 113.07 40.81 111.47 43.39 108.47 43.9 C 104.64 44.54 103.3 41.11 102 38.26 Z" stroke-linecap="round"/>
</g>
		<g transform="matrix(1 0 0 1 21.43 -46.4049)">
<path style="stroke: none; stroke-width: 1; stroke-dasharray: none; stroke-linecap: butt; stroke-dashoffset: 0; stroke-linejoin: miter; stroke-miterlimit: 4; fill: rgb(105,107,103); fill-rule: nonzero; opacity: 1;" transform=" translate(-88.808, -19.7298)" d="M 94 18.37 C 86.9 17.02 85.79 17.63 85 23.37 C 84.2405 22.8177 83.7468 21.9728 83.6385 21.04 C 83.5302 20.1072 83.8172 19.1716 84.43 18.46 C 85.3738 17.6197 86.3764 16.8477 87.43 16.15 C 89.94 16 92.41 15.94 94 18.37 Z" stroke-linecap="round"/>
</g>
		<g transform="matrix(1 0 0 1 37.837 -37.7847)">
<path style="stroke: none; stroke-width: 1; stroke-dasharray: none; stroke-linecap: butt; stroke-dashoffset: 0; stroke-linejoin: miter; stroke-miterlimit: 4; fill: rgb(137,137,137); fill-rule: nonzero; opacity: 1;" transform=" translate(-105.215, -28.35)" d="M 108 31.35 C 105.3326 30.2937 103.2854 28.0885 102.43 25.35 C 105.06 26.63 106.66 28.87 108 31.35 Z" stroke-linecap="round"/>
</g>
		<g transform="matrix(1 0 0 1 31.842 -43.3097)">
<path style="stroke: none; stroke-width: 1; stroke-dasharray: none; stroke-linecap: butt; stroke-dashoffset: 0; stroke-linejoin: miter; stroke-miterlimit: 4; fill: rgb(122,125,123); fill-rule: nonzero; opacity: 1;" transform=" translate(-99.22, -22.825)" d="M 102.5 25.36 C 99.5 24.66 97.89 22.29 95.94 20.29 C 99.14 20.66 101 22.84 102.5 25.36 Z" stroke-linecap="round"/>
</g>
		<g transform="matrix(1 0 0 1 26.7478 -36.6489)">
<path style="stroke: none; stroke-width: 1; stroke-dasharray: none; stroke-linecap: butt; stroke-dashoffset: 0; stroke-linejoin: miter; stroke-miterlimit: 4; fill: rgb(105,106,101); fill-rule: nonzero; opacity: 1;" transform=" translate(-94.1259, -29.4857)" d="M 88.81 26.16 C 88.43 24.42 89.32 23.82 90.66 24.68 C 94.54 27.18 98.05 30.08 99.53 34.68 C 95.66 32.25 94 27 88.81 26.16 Z" stroke-linecap="round"/>
</g>
</g>
</g>
</g>
</g>

</svg>