<?xml version="1.0" ?>
<svg xmlns="http://www.w3.org/2000/svg" version="1.1" width="100" height="100">
  <defs/>
  <g>
    <path d="M 34.95425796508789 11.865900039672852 C 30.457056045532227 12.433462142944336 27.884780883789062 15.73531723022461 24.994548797607422 18.8902530670166 C 21.623607635498047 20.500701904296875 20.015546798706055 23.937946319580078 17.621492385864258 26.956581115722656 C 16.45547103881836 29.697011947631836 14.537456512451172 31.654071807861328 14.151557922363281 35.05634689331055 C 12.38181209564209 37.19967269897461 11.868027687072754 40.701480865478516 10.669867515563965 45.03117752075195 C 10.266352653503418 49.23017120361328 10.203118324279785 50.19521713256836 10.646688461303711 56.03611755371094 C 11.226551055908203 60.56371307373047 12.328496932983398 64.42665100097656 14.778995513916016 68.53277587890625 C 15.810098648071289 72.17772674560547 18.925935745239258 75.11417388916016 22.075366973876953 78.15789031982422 C 25.966379165649414 81.6778335571289 31.208253860473633 84.20195770263672 37.267032623291016 86.46846008300781 C 38.68832778930664 87.93180847167969 42.31403350830078 87.92583465576172 47.556941986083984 88.2551498413086 C 45.18082809448242 89.39759826660156 45.26803207397461 88.51351928710938 55.11741638183594 88.6614990234375 C 60.458438873291016 86.49344635009766 66.0267562866211 85.00543975830078 70.5273208618164 82.53117370605469 C 74.6363754272461 79.24888610839844 78.8968276977539 76.16056060791016 81.86617279052734 71.74557495117188 C 83.77824401855469 68.99967193603516 85.47267150878906 66.25151824951172 86.2209701538086 63.446624755859375 C 87.34202575683594 60.636756896972656 88.82041931152344 57.35537338256836 89.81462097167969 54.360958099365234 C 90.81255340576172 48.46543884277344 89.75 43.91822814941406 88.66393280029297 39.36419677734375 C 87.6197738647461 34.122562408447266 85.81851196289062 30.506275177001953 83.23970031738281 27.655826568603516 C 81.50458526611328 25.40325355529785 79.01300811767578 23.44742202758789 76.94808197021484 21.25963020324707 C 74.39039611816406 19.887470245361328 71.35206604003906 18.111106872558594 70.03569030761719 16.74039077758789 C 64.5770034790039 14.574806213378906 60.40673828125 11.855106353759766 52.26788330078125 10.686016082763672 C 42.669960021972656 10.24993896484375 42.01347732543945 9.568568229675293 34.95425796508789 11.865900039672852" stroke-width="0.0" fill="rgb(0, 0, 0)" opacity="1.0" stroke="rgb(0, 0, 0)" stroke-opacity="1.0" stroke-linecap="round" stroke-linejoin="round"/>
  </g>
</svg>
