<?xml version="1.0" ?>
<svg xmlns="http://www.w3.org/2000/svg" version="1.1" width="100" height="100">
  <defs/>
  <g>
    <path d="M 34.95597457885742 11.86739730834961 C 30.457210540771484 12.433734893798828 27.88477897644043 15.735368728637695 24.994474411010742 18.890138626098633 C 21.623615264892578 20.500690460205078 20.01568603515625 23.938060760498047 17.621522903442383 26.956605911254883 C 16.454994201660156 29.696617126464844 14.535783767700195 31.65267562866211 14.150723457336426 35.055763244628906 C 12.38190746307373 37.19996643066406 11.86788558959961 40.70138931274414 10.669696807861328 45.03054428100586 C 10.266410827636719 49.2303352355957 10.203043937683105 50.19569396972656 10.646438598632812 56.036460876464844 C 11.226085662841797 60.56410598754883 12.329012870788574 64.42557525634766 14.780256271362305 68.531005859375 C 15.811888694763184 72.17556762695312 18.929349899291992 75.11011505126953 22.080724716186523 78.15301513671875 C 25.968305587768555 81.67631530761719 31.208770751953125 84.20175170898438 37.26679229736328 86.4683837890625 C 38.6921501159668 87.92070770263672 42.32108688354492 87.90331268310547 47.55752182006836 88.24823760986328 C 45.181556701660156 89.39798736572266 45.26921081542969 88.51398468017578 55.1170539855957 88.66059112548828 C 60.45851516723633 86.49349212646484 66.02681732177734 85.0055160522461 70.52741241455078 82.53123474121094 C 74.6365737915039 79.24910736083984 78.89707946777344 76.16078186035156 81.86637878417969 71.74575805664062 C 83.77769470214844 68.99906158447266 85.47187042236328 66.2505874633789 86.22079467773438 63.44525146484375 C 87.3420181274414 60.63678741455078 88.8204345703125 57.35538864135742 89.8145980834961 54.36092758178711 C 90.81243896484375 48.46535110473633 89.75001525878906 43.91802215576172 88.66438293457031 39.36377716064453 C 87.62090301513672 34.121490478515625 85.81981658935547 30.505102157592773 83.24053192138672 27.655244827270508 C 81.50450134277344 25.40329360961914 79.01290130615234 23.447494506835938 76.94772338867188 21.25995635986328 C 74.39041137695312 19.887351989746094 71.35192108154297 18.111156463623047 70.03534698486328 16.740741729736328 C 64.57637023925781 14.575396537780762 60.405792236328125 11.85623836517334 52.26317596435547 10.691476821899414 C 42.67012405395508 10.250341415405273 42.01464080810547 9.569290161132812 34.95597457885742 11.86739730834961" stroke-width="0.0" fill="rgb(0, 0, 0)" opacity="1.0" stroke="rgb(0, 0, 0)" stroke-opacity="1.0" stroke-linecap="round" stroke-linejoin="round"/>
  </g>
</svg>
