<?xml version="1.0" ?>
<svg xmlns="http://www.w3.org/2000/svg" version="1.1" width="100" height="100">
  <defs/>
  <g>
    <path d="M 47.174251556396484 88.3600845336914 C 46.86294937133789 87.46728515625 45.99952697753906 87.99003601074219 45.44740676879883 87.67874145507812 C 45.44740676879883 86.78007507324219 46.128746032714844 86.68609619140625 46.74547576904297 86.50401306152344 C 48.795372009277344 86.1985855102539 50.909881591796875 86.70372009277344 52.94215774536133 86.0576171875 C 53.42549514770508 85.93280029296875 53.92311096191406 85.8716049194336 54.422306060791016 85.87553405761719 C 55.110050201416016 85.84728240966797 55.77565002441406 86.12211608886719 56.243133544921875 86.62736511230469 L 55.39146041870117 88.38945007324219 L 47.174251556396484 88.3600845336914" stroke-width="1.0" fill="rgb(76, 82, 77)" opacity="1.0"/>
    <path d="M 54.19317626953125 86.52751159667969 L 53.135929107666016 86.63910675048828 C 51.11539840698242 87.1736068725586 49.059627532958984 86.7507095336914 47.02735137939453 86.88580322265625 C 42.55752182006836 87.4731674194336 38.663307189941406 85.51724243164062 34.633995056152344 84.142822265625 C 32.2845458984375 83.10317993164062 30.029069900512695 81.92845153808594 27.79709243774414 80.67737579345703 C 25.230316162109375 79.54963684082031 23.427112579345703 77.24717712402344 20.842716217041016 76.14881134033203 L 20.214237213134766 75.05631256103516 C 19.098247528076172 73.45867919921875 17.770809173583984 72.02552795410156 16.801658630371094 70.35740661621094 C 15.685670852661133 68.47196960449219 14.452207565307617 66.64527893066406 13.82960319519043 64.52489471435547 C 11.221712112426758 58.6923828125 10.152711868286133 52.654293060302734 11.37442684173584 46.316650390625 C 12.002904891967773 39.550228118896484 14.616669654846191 33.51213836669922 18.234825134277344 27.84996223449707 C 18.481281280517578 27.408029556274414 18.950584411621094 27.137256622314453 19.456539154052734 27.14512825012207 C 20.543161392211914 28.02029800415039 20.255352020263672 29.071678161621094 19.65624237060547 29.98796272277832 C 18.187835693359375 32.24343490600586 17.894153594970703 34.863075256347656 17.195194244384766 37.35936737060547 C 16.778165817260742 38.863014221191406 16.37288475036621 40.519378662109375 18.9572811126709 40.3314208984375 C 19.268585205078125 40.3314208984375 19.339067459106445 40.918785095214844 19.36256217956543 41.3358154296875 C 17.906841278076172 45.10691833496094 17.770221710205078 49.25968933105469 18.974903106689453 53.118309020996094 C 19.268585205078125 55.338539123535156 21.077661514282227 57.10062789916992 20.507919311523438 59.47945022583008 C 19.990863800048828 60.18122863769531 19.812246322631836 61.0764274597168 20.020408630371094 61.922882080078125 C 21.729633331298828 71.00938415527344 26.939542770385742 76.88301086425781 35.83808898925781 79.44979095458984 C 36.02604675292969 79.50852966308594 36.20225524902344 79.59075164794922 36.384334564208984 79.66123962402344 C 41.18896484375 82.63916778564453 46.821773529052734 83.18541717529297 52.014060974121094 85.03560638427734 C 52.84811782836914 85.32928466796875 54.075706481933594 85.153076171875 54.19317626953125 86.52751159667969" stroke-width="1.0" fill="rgb(228, 244, 250)" opacity="1.0"/>
    <path d="M 54.193233489990234 86.52751159667969 C 51.2211799621582 85.78155517578125 48.46644973754883 84.34252166748047 45.31230926513672 84.07233428955078 C 41.858619689941406 83.77864837646484 39.051025390625 81.62890625 36.02610397338867 80.14287567138672 C 36.801422119140625 78.63335418701172 38.09362030029297 78.72733306884766 39.25072479248047 79.37930297851562 C 43.79104232788086 81.93433380126953 48.783626556396484 81.4879379272461 53.682228088378906 81.8227310180664 C 58.05221176147461 82.11641693115234 62.37520217895508 82.32199096679688 66.60420989990234 80.97105407714844 C 67.17219543457031 80.78504180908203 67.79621124267578 80.91472625732422 68.24295043945312 81.31172943115234 C 68.61886596679688 82.8976058959961 67.14459228515625 82.8799819946289 66.3634033203125 83.4027328491211 C 65.15342712402344 84.20742797851562 63.69089126586914 84.57746124267578 62.48093032836914 85.3938980102539 L 60.54850387573242 86.02237701416016 C 59.06835174560547 85.94015502929688 57.70566940307617 86.77420043945312 56.213768005371094 86.6097412109375 L 56.213768005371094 86.6097412109375 L 54.193233489990234 86.52751159667969" stroke-width="1.0" fill="rgb(216, 238, 244)" opacity="1.0"/>
    <path d="M 19.58582305908203 27.30377197265625 C 17.91183853149414 27.926376342773438 17.61228370666504 29.61798095703125 16.87220573425293 30.916053771972656 C 14.167165756225586 35.563560485839844 12.455179214477539 40.72148895263672 11.844379425048828 46.06414031982422 C 10.52281379699707 46.06414031982422 11.421479225158691 44.82480239868164 10.910472869873047 44.366661071777344 C 13.46550178527832 33.177398681640625 18.751766204833984 23.62100601196289 27.720796585083008 16.267223358154297 C 28.11667823791504 16.00332260131836 28.535409927368164 15.775306701660156 28.971879959106445 15.585882186889648 C 29.05716323852539 15.482565879821777 29.181570053100586 15.419424057006836 29.315309524536133 15.411612510681152 C 29.449054718017578 15.403800964355469 29.580036163330078 15.452022552490234 29.676715850830078 15.544767379760742 C 29.888168334960938 16.719493865966797 29.018869400024414 17.25986671447754 28.278791427612305 17.853103637695312 C 25.13728141784668 20.39250946044922 22.422550201416016 23.418542861938477 20.237794876098633 26.816261291503906 C 20.05817985534668 27.023893356323242 19.83574676513672 27.190174102783203 19.58582305908203 27.30377197265625" stroke-width="1.0" fill="rgb(103, 106, 102)" opacity="1.0"/>
    <path d="M 39.00397491455078 11.621121406555176 C 42.886444091796875 10.0 46.87464141845703 10.892791748046875 50.733612060546875 11.462533950805664 C 55.96114730834961 12.231979370117188 61.42361831665039 12.361198425292969 66.00505065917969 15.574073791503906 C 65.88639831542969 16.040321350097656 65.49539184570312 16.387100219726562 65.01828002929688 16.449243545532227 C 61.37639236450195 15.260598182678223 57.64423370361328 14.368804931640625 53.85837936401367 13.78261661529541 C 49.224090576171875 12.872203826904297 44.56630325317383 13.154138565063477 39.932010650634766 12.695995330810547 C 39.444496154785156 12.490418434143066 38.974609375 12.273094177246094 39.00397491455078 11.621121406555176" stroke-width="1.0" fill="rgb(95, 100, 95)" opacity="1.0"/>
    <path d="M 88.37775421142578 55.15058135986328 C 86.15753173828125 64.25469970703125 81.87564849853516 72.14886474609375 74.7568130493164 78.37490844726562 C 74.33050537109375 78.30265808105469 74.0055160522461 77.9535903930664 73.96387481689453 77.52323150634766 C 74.31629180908203 75.86100006103516 75.72595977783203 74.98582458496094 76.79496002197266 73.89920043945312 C 78.65813446044922 72.1666030883789 80.17499542236328 70.09561157226562 81.2647933959961 67.79650115966797 C 82.69208526611328 63.50288009643555 85.96369934082031 60.01981735229492 86.7272720336914 55.42664337158203 C 86.83428192138672 54.83229064941406 87.26164245605469 54.346126556396484 87.83738708496094 54.16381072998047 C 88.35425567626953 54.3165283203125 88.60682678222656 54.60433578491211 88.37775421142578 55.15058135986328" stroke-width="1.0" fill="rgb(91, 95, 91)" opacity="1.0"/>
    <path d="M 65.38250732421875 16.026344299316406 L 66.0227279663086 15.556455612182617 C 75.37354278564453 19.85007667541504 83.2559585571289 25.641475677490234 86.739013671875 35.90270233154297 C 86.85820007324219 36.363136291503906 86.938720703125 36.83267593383789 86.9798355102539 37.30649948120117 C 86.7330322265625 37.450401306152344 86.4278335571289 37.450401306152344 86.18102264404297 37.30649948120117 C 85.85479736328125 37.09258270263672 85.59771728515625 36.78856658935547 85.44094848632812 36.43132781982422 C 82.15758514404297 27.726613998413086 75.45578002929688 22.33462142944336 67.60861206054688 18.087989807128906 C 66.70994567871094 17.60634994506836 65.5587158203125 17.31854248046875 65.38250732421875 16.026344299316406" stroke-width="1.0" fill="rgb(87, 90, 85)" opacity="1.0"/>
    <path d="M 10.910412788391113 44.36660385131836 L 11.844319343566895 46.0699577331543 C 10.569742202758789 52.61317825317383 11.903055191040039 58.81572723388672 14.281875610351562 64.86557006835938 Q 13.976446151733398 65.37657165527344 13.612281799316406 64.90081024169922 C 10.0 58.42807388305664 10.123346328735352 51.438453674316406 10.910412788391113 44.36660385131836" stroke-width="1.0" fill="rgb(112, 114, 110)" opacity="1.0"/>
    <path d="M 74.14008331298828 77.78167724609375 L 74.72744750976562 78.36903381347656 C 71.31651306152344 81.73192596435547 67.09684753417969 84.15937805175781 62.47505569458008 85.41739654541016 C 63.77900314331055 83.22065734863281 66.58659362792969 83.46735382080078 68.25471496582031 81.82860565185547 C 69.95218658447266 80.0606460571289 71.63204956054688 78.3220443725586 74.14008331298828 77.78167724609375" stroke-width="1.0" fill="rgb(91, 94, 90)" opacity="1.0"/>
    <path d="M 34.422607421875 83.5848159790039 C 38.35206604003906 84.90637969970703 42.134681701660156 86.78007507324219 46.428306579589844 86.66259765625 C 46.53602600097656 86.664306640625 46.635467529296875 86.72056579589844 46.692440032958984 86.81196594238281 C 46.74941635131836 86.90335845947266 46.75611114501953 87.01742553710938 46.710235595703125 87.1148681640625 L 45.44740676879883 87.70223236083984 C 41.33586883544922 87.08549499511719 37.38291931152344 86.12223052978516 33.70014953613281 84.17805480957031 C 33.659034729003906 83.57894134521484 33.829368591308594 83.30875396728516 34.422607421875 83.5848159790039" stroke-width="1.0" fill="rgb(96, 100, 96)" opacity="1.0"/>
    <path d="M 88.37775421142578 55.15058135986328 L 87.79039764404297 54.34001922607422 C 86.90935516357422 50.87458419799805 87.6376724243164 47.409141540527344 87.79039764404297 43.94369888305664 C 87.98662567138672 43.48191833496094 88.39726257324219 43.14594268798828 88.88876342773438 43.0450325012207 C 90.0 47.033050537109375 89.8211441040039 51.27040481567383 88.37775421142578 55.15058135986328" stroke-width="1.0" fill="rgb(104, 110, 105)" opacity="1.0"/>
    <path d="M 39.00403594970703 11.621124267578125 L 39.591400146484375 12.108634948730469 C 39.591400146484375 13.142394065856934 38.7455940246582 13.177635192871094 38.046630859375 13.371465682983398 C 36.33740997314453 13.441948890686035 34.874874114990234 14.328866958618164 33.3124885559082 14.886861801147461 C 32.13776397705078 15.198163986206055 31.16274070739746 16.290658950805664 29.788311004638672 15.673928260803223 L 28.948381423950195 15.585823059082031 C 31.742467880249023 13.143686294555664 35.295127868652344 11.742942810058594 39.00403594970703 11.621124267578125" stroke-width="1.0" fill="rgb(114, 121, 118)" opacity="1.0"/>
    <path d="M 20.842777252197266 76.1488037109375 C 22.205459594726562 75.16203308105469 22.60486602783203 76.68917846679688 23.380186080932617 77.1649398803711 C 24.895580291748047 78.11647033691406 26.316999435424805 79.22657775878906 27.767786026000977 80.27796173095703 C 27.820648193359375 80.73023223876953 27.808900833129883 81.10027313232422 27.180423736572266 80.74198150634766 C 24.82592010498047 79.57606506347656 22.683631896972656 78.02342987060547 20.842777252197266 76.1488037109375" stroke-width="1.0" fill="rgb(93, 93, 90)" opacity="1.0"/>
    <path d="M 27.198041915893555 80.74198150634766 L 27.785404205322266 80.27796173095703 L 34.440223693847656 83.5848159790039 L 33.7236442565918 84.13693237304688 C 31.407670974731445 83.29935455322266 29.21328353881836 82.15769958496094 27.198041915893555 80.74198150634766" stroke-width="1.0" fill="rgb(106, 107, 103)" opacity="1.0"/>
    <path d="M 88.91812896728516 43.0450325012207 L 88.33076477050781 43.74987030029297 C 86.71551513671875 41.882057189941406 85.5760269165039 39.8850212097168 86.539306640625 37.28887939453125 L 86.97982788085938 37.28887939453125 C 88.07408905029297 39.0263557434082 88.73851013183594 40.999542236328125 88.91812896728516 43.0450325012207" stroke-width="1.0" fill="rgb(92, 93, 87)" opacity="1.0"/>
    <path d="M 13.612340927124023 64.92430114746094 L 14.28193473815918 64.8890609741211 L 17.136518478393555 70.17532348632812 C 17.06885528564453 70.43540954589844 16.88759422302246 70.6511459350586 16.64313507080078 70.76268768310547 C 15.427291870117188 68.94186401367188 14.052864074707031 67.17390441894531 13.612340927124023 64.92430114746094" stroke-width="1.0" fill="rgb(101, 104, 100)" opacity="1.0"/>
    <path d="M 16.64313507080078 70.79792785644531 L 17.136518478393555 70.2105712890625 C 18.14678192138672 71.84343719482422 19.668052673339844 73.14738464355469 20.21430206298828 75.0798110961914 C 18.469833374023438 74.09891510009766 17.424325942993164 72.55413818359375 16.64313507080078 70.79792785644531" stroke-width="1.0" fill="rgb(97, 100, 95)" opacity="1.0"/>
    <path d="M 56.23727035522461 86.6038589477539 C 57.635189056396484 86.04586791992188 58.98612594604492 85.14132690429688 60.57200241088867 86.01649475097656 C 59.209320068359375 86.83880615234375 57.829017639160156 87.5083999633789 56.23727035522461 86.6038589477539" stroke-width="1.0" fill="rgb(96, 97, 92)" opacity="1.0"/>
    <path d="M 46.710235595703125 87.11486053466797 C 46.62730026245117 86.958740234375 46.5351448059082 86.80773162841797 46.434173583984375 86.66259765625 L 53.135986328125 86.66259765625 C 51.050846099853516 87.54364013671875 48.848236083984375 86.88579559326172 46.710235595703125 87.11486053466797" stroke-width="1.0" fill="rgb(216, 238, 244)" opacity="1.0"/>
    <path d="M 74.14002227783203 77.7816162109375 C 72.28983306884766 79.2793960571289 70.54536437988281 80.92401123046875 68.26640319824219 81.8050537109375 C 67.2972412109375 80.96512603759766 66.34571838378906 81.8050537109375 65.53516387939453 82.02237701416016 C 62.20481491088867 82.94454193115234 58.96256637573242 82.90929412841797 55.49713134765625 82.71546936035156 C 51.47369384765625 82.48639678955078 47.45025634765625 82.26319122314453 43.42094802856445 81.94014739990234 C 41.993656158447266 81.82855224609375 40.68971252441406 81.5936050415039 39.69706726074219 80.55984497070312 C 38.5223388671875 79.38512420654297 37.347618103027344 79.38512420654297 36.00843048095703 80.142822265625 C 31.027591705322266 79.27352142333984 27.421184539794922 75.93730163574219 23.497600555419922 73.17082214355469 C 22.62242889404297 72.5482177734375 22.493209838867188 71.5438232421875 22.176034927368164 70.64515686035156 C 21.089412689208984 67.53800964355469 20.13201141357422 64.37800598144531 18.92791748046875 61.317840576171875 C 18.205461502075195 59.485267639160156 19.32145118713379 59.62623596191406 20.419818878173828 59.555747985839844 C 21.5181884765625 59.485267639160156 22.005699157714844 60.366310119628906 22.27001190185547 61.165122985839844 C 23.409496307373047 64.6423110961914 25.988019943237305 67.00350952148438 28.49605941772461 69.4293212890625 C 29.60634994506836 70.62901306152344 30.88439178466797 71.66171264648438 32.29042053222656 72.49535369873047 C 30.764863967895508 71.54946899414062 29.380626678466797 70.39265441894531 28.178882598876953 69.05928039550781 C 26.962688446044922 67.94622802734375 25.80593490600586 66.76985931396484 24.713441848754883 65.53511047363281 C 24.043848037719727 64.69517517089844 22.95135498046875 63.861122131347656 23.650314331054688 62.48668670654297 C 26.481403350830078 62.99769973754883 28.419702529907227 65.04759216308594 30.352123260498047 66.82730102539062 C 33.952659606933594 70.1341552734375 38.14643096923828 72.21342468261719 42.76310348510742 73.69357299804688 C 45.79389572143555 74.61573791503906 48.572120666503906 76.3719482421875 51.8554801940918 76.48942565917969 C 55.228057861328125 78.0988540649414 59.10013198852539 78.30995178222656 62.627708435058594 77.0767822265625 C 67.97859191894531 75.314697265625 72.24284362792969 72.00784301757812 75.72590637207031 67.64373779296875 C 77.2886962890625 65.6475830078125 78.73784637451172 63.56502914428711 80.06652069091797 61.40594482421875 C 80.65387725830078 60.436798095703125 81.16487884521484 59.26206970214844 82.65091705322266 59.385414123535156 C 84.33076477050781 60.64824295043945 83.56719970703125 62.18714141845703 82.90935516357422 63.49695587158203 C 82.15900421142578 65.03490447998047 81.75788879394531 66.71969604492188 81.734619140625 68.43080139160156 C 80.07826232910156 72.23690795898438 76.83015441894531 74.78019714355469 74.14002227783203 77.7816162109375" stroke-width="1.0" fill="rgb(205, 236, 245)" opacity="1.0"/>
    <path d="M 42.481224060058594 74.27511596679688 C 38.263954162597656 73.10038757324219 34.29338836669922 71.42640686035156 31.086383819580078 68.4014892578125 C 28.7369327545166 66.20475769042969 26.052684783935547 64.54838562011719 23.568138122558594 62.58659362792969 C 21.089466094970703 60.93022918701172 20.554967880249023 58.128509521484375 19.456600189208984 55.65571212768555 C 19.048969268798828 54.59487533569336 18.713409423828125 53.507728576660156 18.45220947265625 52.4017219543457 C 17.500680923461914 48.61910629272461 17.917709350585938 44.90697479248047 18.992584228515625 41.24182891845703 C 18.976490020751953 41.150550842285156 18.954933166503906 41.060333251953125 18.9279727935791 40.971641540527344 C 16.07926368713379 41.55900573730469 15.362680435180664 40.78955841064453 16.355323791503906 37.54144287109375 C 17.201126098632812 34.76321792602539 17.113021850585938 31.62670135498047 19.350875854492188 29.3183650970459 C 19.715038299560547 28.94245147705078 19.521209716796875 28.026165008544922 19.585819244384766 27.3565731048584 C 19.621061325073242 27.180362701416016 19.66217803955078 27.004154205322266 19.709165573120117 26.833818435668945 C 21.653335571289062 27.873451232910156 22.358171463012695 29.418216705322266 20.99549102783203 31.268407821655273 C 19.421358108520508 33.41228103637695 19.67392349243164 35.57377624511719 20.24953842163086 38.028953552246094 C 21.18344497680664 37.130287170410156 21.154075622558594 35.93794250488281 21.823671340942383 35.12738037109375 C 22.334674835205078 34.54001998901367 22.83980941772461 33.76470184326172 23.585758209228516 34.90418243408203 C 23.83873748779297 40.4903564453125 24.717430114746094 46.03053665161133 26.20539665222168 51.42082977294922 C 26.19365119934082 57.687984466552734 29.42414665222168 62.44562911987305 33.95271301269531 66.42207336425781 C 36.19673156738281 68.45499420166016 38.596580505371094 70.30888366699219 41.130287170410156 71.96678161621094 C 41.905609130859375 72.47190856933594 42.81014633178711 73.04165649414062 42.481224060058594 74.27511596679688" stroke-width="1.0" fill="rgb(218, 241, 248)" opacity="1.0"/>
    <path d="M 18.922100067138672 52.607303619384766 C 19.837268829345703 56.19533157348633 21.412811279296875 59.581478118896484 23.568138122558594 62.592472076416016 C 24.366952896118164 65.33545684814453 26.804508209228516 66.84497833251953 28.40213394165039 68.98298645019531 C 28.52659797668457 69.09440612792969 28.597667694091797 69.2535171508789 28.597667694091797 69.42056274414062 C 28.597667694091797 69.58761596679688 28.52659797668457 69.7467269897461 28.40213394165039 69.858154296875 C 24.766359329223633 67.16215515136719 22.751705169677734 63.24444580078125 20.443368911743164 59.55580520629883 C 19.991100311279297 57.370819091796875 18.46395492553711 55.53824234008789 18.358230590820312 53.235782623291016 C 18.093917846679688 52.6014289855957 18.38759994506836 52.50745391845703 18.922100067138672 52.607303619384766" stroke-width="1.0" fill="rgb(123, 138, 139)" opacity="1.0"/>
    <path d="M 18.922103881835938 52.607303619384766 L 18.334739685058594 53.23577880859375 C 17.201129913330078 49.12424087524414 16.572650909423828 45.10080337524414 18.974964141845703 41.200714111328125 C 19.433225631713867 41.4136962890625 19.636863708496094 41.954124450683594 19.433109283447266 42.41655731201172 C 17.823734283447266 45.752777099609375 18.3758544921875 49.17710494995117 18.922103881835938 52.607303619384766" stroke-width="1.0" fill="rgb(149, 156, 155)" opacity="1.0"/>
    <path d="M 23.1041259765625 34.36974334716797 C 21.876537322998047 35.35063934326172 22.017501831054688 37.012874603271484 21.201068878173828 38.19347381591797 C 20.942630767822266 38.563514709472656 20.61370849609375 39.15675354003906 20.325899124145508 39.16849899291992 C 19.715747833251953 39.1383056640625 19.230525970458984 38.645450592041016 19.209909439086914 38.034889221191406 C 19.40961265563965 35.5797119140625 17.97057342529297 32.89546203613281 20.496234893798828 30.745718002319336 C 22.31118392944336 29.20682716369629 19.81489372253418 28.149572372436523 19.70916748046875 26.781017303466797 C 21.905902862548828 22.017505645751953 26.064434051513672 19.033700942993164 29.841176986694336 15.673986434936523 L 33.077545166015625 14.38766098022461 C 34.84227752685547 14.70612907409668 36.64665222167969 14.093568801879883 37.852806091308594 12.766539573669434 L 39.61489486694336 12.108694076538086 C 44.560489654541016 11.873748779296875 49.48846435546875 11.938358306884766 54.334205627441406 13.18356704711914 C 52.8892936706543 14.358293533325195 51.05084991455078 14.892793655395508 49.5589485168457 15.997035026550293 C 46.18936538696289 16.527070999145508 42.88421630859375 17.406999588012695 39.69712448120117 18.622547149658203 C 33.142154693603516 21.342037200927734 28.13782501220703 26.082056045532227 24.55491065979004 32.243492126464844 C 24.11438751220703 33.01880645751953 23.967548370361328 33.91747283935547 23.1041259765625 34.36974334716797" stroke-width="1.0" fill="rgb(208, 236, 245)" opacity="1.0"/>
    <path d="M 49.51195526123047 15.580009460449219 C 50.602806091308594 14.007991790771484 52.422454833984375 13.10374641418457 54.334205627441406 13.183568954467773 C 58.15182876586914 13.495927810668945 61.888221740722656 14.457324028015137 65.38250732421875 16.026405334472656 C 69.03590393066406 18.217267990112305 72.83613586425781 20.167312622070312 76.24284362792969 22.79869842529297 C 81.1649398803711 26.60481071472168 84.36019897460938 31.57977294921875 86.54518127441406 37.30068588256836 Q 87.4321060180664 40.525306701660156 88.33663940429688 43.761680603027344 C 88.65980529785156 47.292667388916016 88.48582458496094 50.851558685302734 87.81976318359375 54.33420944213867 C 86.64503479003906 59.397281646728516 84.00189971923828 63.80836868286133 81.73468017578125 68.39567565917969 C 80.84776306152344 66.8274154663086 81.1473159790039 65.38250732421875 81.89327239990234 63.796627044677734 C 82.48063659667969 62.52791976928711 83.73171997070312 61.15349197387695 82.38078308105469 59.59110641479492 C 81.38813781738281 58.34589767456055 82.21631622314453 57.171173095703125 82.5217514038086 55.98469924926758 C 83.69647216796875 51.51486587524414 83.94316101074219 47.11552047729492 81.5584716796875 42.910003662109375 C 81.02397155761719 41.84100341796875 80.97111511230469 40.64278030395508 80.66567993164062 39.50917053222656 C 80.3602523803711 36.45487976074219 77.96968841552734 34.81026840209961 76.11949157714844 32.8073616027832 C 75.05049133300781 32.173011779785156 74.72157287597656 30.93954849243164 73.89338684082031 30.105493545532227 C 73.6328353881836 29.809932708740234 73.39154052734375 29.497982025146484 73.17092895507812 29.171586990356445 C 72.4705581665039 28.07585906982422 71.61601257324219 27.086740493774414 70.6335220336914 26.234771728515625 C 70.439697265625 26.064435958862305 70.25760650634766 25.882354736328125 70.08140563964844 25.69439697265625 C 69.12987518310547 24.695880889892578 68.21359252929688 23.62100601196289 66.84503173828125 23.145244598388672 C 66.14219665527344 22.767452239990234 65.48240661621094 22.314477920532227 64.87736511230469 21.794307708740234 C 63.94933319091797 20.85452651977539 62.52791976928711 21.159955978393555 61.50590896606445 20.431625366210938 C 59.08050537109375 18.40986442565918 56.09376907348633 17.1799259185791 52.948028564453125 16.907447814941406 C 51.691070556640625 16.825218200683594 50.39887237548828 16.707744598388672 49.51195526123047 15.580009460449219" stroke-width="1.0" fill="rgb(226, 241, 246)" opacity="1.0"/>
    <path d="M 37.82343292236328 12.766422271728516 C 36.948265075683594 15.198104858398438 35.068702697753906 15.832456588745117 33.04817581176758 14.387544631958008 C 34.540077209472656 13.588730812072754 36.02610397338867 12.684191703796387 37.82343292236328 12.766422271728516" stroke-width="1.0" fill="rgb(189, 221, 229)" opacity="1.0"/>
    <path d="M 81.80510711669922 42.581016540527344 C 83.87850189208984 43.97306823730469 83.86087799072266 46.22854232788086 84.15455627441406 48.34304428100586 C 84.67144012451172 52.26075744628906 83.43797302246094 55.914154052734375 82.39247131347656 59.596920013427734 C 80.43067169189453 62.35165023803711 78.5217514038086 65.15337371826172 76.51884460449219 67.86112213134766 C 73.22620391845703 72.38856506347656 68.63290405273438 75.80590057373047 63.35017013549805 77.6583251953125 C 59.596923828125 78.9622802734375 55.60873031616211 79.42041778564453 51.87309646606445 77.18256378173828 C 43.902584075927734 73.14738464355469 36.601661682128906 68.1606674194336 30.381488800048828 61.723175048828125 C 27.720735549926758 58.98019027709961 26.416791915893555 55.55586624145508 25.46526336669922 51.95532989501953 C 23.996856689453125 46.17567825317383 22.52845001220703 40.39603042602539 23.115812301635742 34.33444595336914 C 23.926372528076172 29.535690307617188 27.568023681640625 26.698728561401367 30.692792892456055 23.54458999633789 C 35.84983825683594 18.334680557250977 42.393062591552734 16.261289596557617 49.511898040771484 15.579949378967285 C 52.795257568359375 16.29065704345703 56.301815032958984 16.085081100463867 59.31498336791992 17.929401397705078 C 60.28413391113281 18.51676368713379 61.48822784423828 18.833938598632812 61.83477020263672 20.13201141357422 C 61.899383544921875 21.623912811279297 59.30910873413086 22.293506622314453 60.595436096191406 24.155447006225586 C 61.347259521484375 24.543106079101562 61.43536376953125 25.91753387451172 62.70406723022461 25.524002075195312 C 65.69374084472656 26.058502197265625 67.15040588378906 28.6135311126709 69.20030212402344 30.393239974975586 C 69.94883728027344 31.192405700683594 70.5941162109375 32.08237838745117 71.12097930908203 33.04224395751953 C 71.3482894897461 33.46778869628906 71.60331726074219 33.877830505371094 71.88455200195312 34.26983642578125 C 73.49980163574219 36.26099395751953 74.40434265136719 36.18463897705078 75.71415710449219 33.8939208984375 C 75.88995361328125 33.44688034057617 76.14457702636719 33.03507995605469 76.46598052978516 32.678077697753906 C 78.78018951416016 34.258087158203125 81.00629425048828 35.896827697753906 81.2177505493164 39.039222717285156 C 80.63037872314453 39.35639572143555 80.1722412109375 39.039222717285156 79.69060516357422 38.786651611328125 C 79.03275299072266 38.393123626708984 78.26331329345703 37.7117805480957 77.60546112060547 38.404869079589844 C 76.70680236816406 39.35052490234375 76.86538696289062 40.53699493408203 77.5584716796875 41.61774444580078 C 78.5041275024414 44.10816192626953 80.09001159667969 43.62652587890625 81.80510711669922 42.581016540527344" stroke-width="1.0" fill="rgb(249, 249, 249)" opacity="1.0"/>
    <path d="M 25.465322494506836 51.97294998168945 C 29.388906478881836 62.26942443847656 37.8939208984375 68.02557373046875 46.72198486328125 73.482177734375 C 48.52518844604492 74.59817504882812 50.4752311706543 75.52033233642578 51.8731575012207 77.20018768310547 C 48.41946029663086 77.27066802978516 45.541385650634766 75.43809509277344 42.47534942626953 74.26337432861328 C 39.62664031982422 71.9609146118164 36.748565673828125 69.69369506835938 33.929222106933594 67.35011291503906 C 29.10697364807129 63.344295501708984 25.576921463012695 58.592529296875 25.465322494506836 51.97294998168945" stroke-width="1.0" fill="rgb(228, 244, 250)" opacity="1.0"/>
    <path d="M 28.378643035888672 69.8522720336914 C 28.378643035888672 69.55859375 28.378643035888672 69.26490783691406 28.378643035888672 68.97709655761719 L 33.79412841796875 73.18849182128906 C 31.679622650146484 72.59526062011719 29.729578018188477 71.70834350585938 28.378643035888672 69.8522720336914" stroke-width="1.0" fill="rgb(145, 168, 168)" opacity="1.0"/>
    <path d="M 62.62189483642578 26.064319610595703 C 60.924415588378906 26.79265022277832 61.10062789916992 25.00706672668457 60.389915466308594 24.402082443237305 C 59.802555084228516 22.193599700927734 61.041893005371094 20.51961326599121 63.22687530517578 20.578350067138672 C 64.17253112792969 20.578350067138672 64.8479995727539 21.224449157714844 65.67030334472656 21.4887638092041 L 66.80979919433594 22.616500854492188 C 68.44265747070312 23.16274642944336 69.2238540649414 24.807363510131836 70.66288757324219 25.59442901611328 L 70.62764739990234 25.565061569213867 C 71.58810424804688 26.854206085205078 72.68501281738281 28.035743713378906 73.89926147460938 29.089237213134766 C 73.96351623535156 29.197547912597656 74.04716491699219 29.29311180114746 74.14595794677734 29.371173858642578 C 74.61255645751953 30.417970657348633 75.13407135009766 31.439451217651367 75.70833587646484 32.431331634521484 C 76.43079376220703 33.67654037475586 76.13711547851562 34.56346130371094 75.1209716796875 35.415138244628906 C 73.94624328613281 36.390159606933594 73.04757690429688 35.902645111083984 72.1430435180664 34.98048400878906 C 71.55567932128906 34.39312744140625 71.12690734863281 33.58843994140625 70.3809585571289 33.14791488647461 L 68.95954132080078 31.07452392578125 C 67.16221618652344 28.99526023864746 65.99336242675781 26.158296585083008 62.62189483642578 26.064319610595703" stroke-width="1.0" fill="rgb(246, 246, 247)" opacity="1.0"/>
    <path d="M 80.03714752197266 38.4753532409668 L 81.21186828613281 39.062713623046875 C 81.88733673095703 40.15521240234375 81.79923248291016 41.37105178833008 81.79923248291016 42.58689498901367 C 79.38516998291016 45.6588020324707 78.99751281738281 45.60593795776367 77.10032653808594 41.97016143798828 C 76.79901123046875 41.478538513183594 76.65364074707031 40.90727233886719 76.68330383300781 40.3314208984375 C 76.68330383300781 37.782264709472656 77.59371948242188 37.28887939453125 80.03714752197266 38.4753532409668" stroke-width="1.0" fill="rgb(246, 246, 246)" opacity="1.0"/>
    <path d="M 70.36921691894531 33.17146301269531 C 71.444091796875 33.17146301269531 71.71427154541016 34.15235900878906 72.28988647460938 34.739723205566406 C 73.09457397460938 35.567909240722656 73.88751220703125 35.71474838256836 74.84491729736328 35.051025390625 C 75.80231475830078 34.387306213378906 75.74358367919922 33.53562927246094 75.37354278564453 32.519493103027344 C 75.00350189208984 31.503355026245117 73.78765869140625 30.75740623474121 74.19881439208984 29.394723892211914 L 76.5188980102539 32.70745086669922 C 76.8713150024414 34.66924285888672 75.93153381347656 36.18463897705078 74.16944885253906 36.48419189453125 C 71.91984558105469 36.860107421875 71.13278198242188 34.84545135498047 70.36921691894531 33.17146301269531" stroke-width="1.0" fill="rgb(125, 127, 122)" opacity="1.0"/>
    <path d="M 65.67030334472656 21.488819122314453 C 61.50003433227539 20.695877075195312 60.848060607910156 21.054168701171875 60.3840446472168 24.42563247680664 C 59.93794250488281 24.101232528686523 59.6479606628418 23.604969024658203 59.584346771240234 23.057079315185547 C 59.52073287963867 22.509185791015625 59.689308166503906 21.95964813232422 60.04924392700195 21.54168128967285 C 60.603599548339844 21.048120498657227 61.1924934387207 20.594676971435547 61.81133270263672 20.184871673583984 C 63.28561782836914 20.09676742553711 64.73640441894531 20.061527252197266 65.67030334472656 21.488819122314453" stroke-width="1.0" fill="rgb(105, 107, 103)" opacity="1.0"/>
    <path d="M 73.89338684082031 29.112789154052734 C 72.32666015625 28.49235725402832 71.12420654296875 27.197105407714844 70.62178039550781 25.588613510131836 C 72.16654968261719 26.340436935424805 73.1063232421875 27.656131744384766 73.89338684082031 29.112789154052734" stroke-width="1.0" fill="rgb(137, 137, 137)" opacity="1.0"/>
    <path d="M 70.66288757324219 25.594486236572266 C 68.90080261230469 25.183330535888672 67.95514678955078 23.791282653808594 66.80979919433594 22.61655616760254 C 68.68934631347656 22.833881378173828 69.78184509277344 24.114330291748047 70.66288757324219 25.594486236572266" stroke-width="1.0" fill="rgb(122, 125, 123)" opacity="1.0"/>
    <path d="M 62.62184143066406 26.064435958862305 C 62.398643493652344 25.042423248291016 62.92139434814453 24.690006256103516 63.70846939086914 25.19513702392578 C 65.9874267578125 26.663545608520508 68.049072265625 28.366897583007812 68.91836547851562 31.06876564025879 C 66.64527893066406 29.6414737701416 65.67025756835938 26.557819366455078 62.62184143066406 26.064435958862305" stroke-width="1.0" fill="rgb(105, 106, 101)" opacity="1.0"/>
  </g>
</svg>
